<?xml version="1.0" encoding="UTF-8" standalone="no"?>
<!-- Created with Inkscape (http://www.inkscape.org/) -->
<svg
   xmlns:dc="http://purl.org/dc/elements/1.1/"
   xmlns:cc="http://web.resource.org/cc/"
   xmlns:rdf="http://www.w3.org/1999/02/22-rdf-syntax-ns#"
   xmlns:svg="http://www.w3.org/2000/svg"
   xmlns="http://www.w3.org/2000/svg"
   xmlns:sodipodi="http://sodipodi.sourceforge.net/DTD/sodipodi-0.dtd"
   xmlns:inkscape="http://www.inkscape.org/namespaces/inkscape"
   width="1325"
   height="675"
   id="svg2056"
   sodipodi:version="0.32"
   inkscape:version="0.44.1"
   version="1.0"
   sodipodi:docbase="/mnt/crypt/home/scy/doc/c3ma/Logo"
   sodipodi:docname="chaostreff-logo-1.1.svg">
  <defs
     id="defs2058" />
  <sodipodi:namedview
     id="base"
     pagecolor="black"
     bordercolor="#666666"
     borderopacity="1.0"
     inkscape:pageopacity="1"
     inkscape:pageshadow="2"
     inkscape:zoom="0.70339623"
     inkscape:cx="662.5"
     inkscape:cy="337.5"
     inkscape:document-units="px"
     inkscape:current-layer="layer1"
     width="1325px"
     height="675px"
     units="px"
     inkscape:window-width="1018"
     inkscape:window-height="690"
     inkscape:window-x="0"
     inkscape:window-y="25"
     showgrid="true"
     gridspacingx="25px"
     gridspacingy="25px"
     gridempspacing="2"
     inkscape:grid-points="true"
     gridtolerance="10000" />
  <metadata
     id="metadata2061">
    <rdf:RDF>
      <cc:Work
         rdf:about="">
        <dc:format>image/svg+xml</dc:format>
        <dc:type
           rdf:resource="http://purl.org/dc/dcmitype/StillImage" />
      </cc:Work>
    </rdf:RDF>
  </metadata>
  <g
     inkscape:label="Ebene 1"
     inkscape:groupmode="layer"
     id="layer1">
    <path
       style="fill:white;fill-opacity:1;fill-rule:evenodd;stroke:none;stroke-width:0.99883318px;stroke-linecap:butt;stroke-linejoin:miter;stroke-opacity:1"
       d="M 117.67718,498.63234 L 117.67718,507.51822 C 117.67718,514.52175 116.61256,519.24109 114.48431,521.68124 C 112.35705,524.11837 108.31247,525.33995 102.35458,525.33995 L 65.450564,525.33995 C 59.49066,525.33995 55.42609,524.10038 53.255854,521.62226 C 51.082619,519.14613 50,514.46077 50,507.5642 L 50,467.93015 C 50,461.03657 51.082619,456.34822 53.255854,453.8711 C 55.42609,451.39696 59.49066,450.1554 65.450564,450.1554 L 102.35458,450.1554 C 108.31147,450.1554 112.35605,451.36397 114.48431,453.77912 C 116.61156,456.19627 117.67718,460.89362 117.67718,467.87817 L 117.67718,475.01466 L 106.73903,477.34584 L 106.73903,460.30083 L 60.935152,460.30083 L 60.935152,514.80266 L 106.73803,514.80266 L 106.73803,496.00826 L 117.67718,498.63234 L 117.67718,498.63234 z M 196.74936,525.33995 L 196.74936,491.25993 L 144.79464,491.25993 L 144.79464,525.33995 L 133.85649,525.33995 L 133.85649,450.1554 L 144.79464,450.1554 L 144.79464,480.8536 L 196.74936,480.8536 L 196.74936,450.1554 L 207.68551,450.1554 L 207.68551,525.33995 L 196.74936,525.33995 L 196.74936,525.33995 z M 288.49708,525.33995 L 280.07904,506.86945 L 235.56271,506.86945 L 227.14466,525.33995 L 216.30148,525.33995 L 252.27182,450.1554 L 264.0057,450.1554 L 300.61282,525.33995 L 288.49708,525.33995 L 288.49708,525.33995 z M 257.90585,458.76137 L 240.16608,497.24183 L 275.6426,497.24183 L 257.90585,458.76137 L 257.90585,458.76137 z M 381.41838,521.62226 C 379.29313,524.10038 375.24955,525.33995 369.29165,525.33995 L 323.71969,525.33995 C 317.76178,525.33995 313.69822,524.10038 311.52998,521.62226 C 309.35974,519.14613 308.27412,514.46077 308.27412,507.5642 L 308.27412,467.93015 C 308.27412,461.03657 309.35974,456.34822 311.52998,453.8711 C 313.69822,451.39696 317.76178,450.1554 323.71969,450.1554 L 369.29165,450.1554 C 375.24955,450.1554 379.29313,451.39696 381.41838,453.8711 C 383.54564,456.34922 384.61125,461.03657 384.61125,467.93015 L 384.61125,507.5642 C 384.61125,514.46077 383.54664,519.14712 381.41838,521.62226 L 381.41838,521.62226 z M 373.67311,460.30083 L 319.21327,460.30083 L 319.21327,514.80266 L 373.67311,514.80266 L 373.67311,460.30083 L 373.67311,460.30083 z M 456.36801,481.37341 C 462.32791,481.37341 466.37449,482.63697 468.50474,485.16108 C 470.63199,487.6832 471.69762,492.34255 471.69762,499.13516 L 471.69762,507.5772 C 471.69762,514.46977 470.63299,519.15312 468.50274,521.62925 C 466.37249,524.10338 462.32592,525.34094 456.36302,525.34094 L 417.88955,525.34094 C 411.92464,525.34094 407.85508,524.09538 405.68485,521.60826 C 403.5116,519.12113 402.42599,514.42479 402.42599,507.51922 L 402.42599,505.48094 L 412.67938,502.71191 L 412.67938,514.80365 L 461.67014,514.80365 L 461.67014,492.29857 L 420.34868,492.29857 C 414.48175,492.29857 410.46516,491.06101 408.29693,488.58288 C 406.12969,486.10375 405.04407,481.4114 405.04407,474.50583 L 405.04407,467.94714 C 405.04407,460.94561 406.12969,456.23226 408.29993,453.80012 C 410.46816,451.37097 414.48874,450.1554 420.36068,450.1554 L 455.45733,450.1554 C 461.07236,450.1554 465.04796,451.31499 467.38814,453.63417 C 469.72831,455.95335 470.9009,460.26484 470.9009,466.56563 L 470.9009,468.16706 L 461.44323,471.22899 L 461.44323,460.30083 L 414.84462,460.30083 L 414.84462,481.37341 L 456.36801,481.37341 L 456.36801,481.37341 z M 527.13811,525.33995 L 527.13811,450.1554 L 538.07626,450.1554 L 538.07626,525.33995 L 527.13811,525.33995 L 527.13811,525.33995 z M 630.41577,525.33995 L 630.41577,474.63278 L 630.87161,463.55869 C 629.42611,467.05546 628.11158,469.77349 626.921,471.71781 L 601.82084,513.5291 L 599.01582,513.5291 L 572.89601,472.8834 C 571.87637,471.32895 570.38789,468.22105 568.43658,463.55869 C 568.73847,466.47366 568.89242,470.16536 568.89242,474.63278 L 568.89242,525.33995 L 559.54771,525.33995 L 559.54771,450.1554 L 568.48656,450.1554 L 600.53628,499.11317 L 630.41577,450.1554 L 640.44225,450.1554 L 640.44225,525.33995 L 630.41577,525.33995 L 630.41577,525.33995 z M 769.21593,521.62226 C 767.08768,524.10038 763.0461,525.33995 757.08919,525.33995 L 749.55785,525.33995 L 757.34311,543.41958 L 746.8758,543.41958 L 739.85526,525.33995 L 711.51423,525.33995 C 705.55933,525.33995 701.49576,524.10038 699.32452,521.62226 C 697.15429,519.14613 696.06867,514.46077 696.06867,507.5642 L 696.06867,467.93015 C 696.06867,461.03657 697.15429,456.34822 699.32452,453.8711 C 701.49576,451.39696 705.55933,450.1554 711.51423,450.1554 L 757.08919,450.1554 C 763.0441,450.1554 767.08768,451.39696 769.21593,453.8711 C 771.34118,456.34922 772.40581,461.03657 772.40581,467.93015 L 772.40581,507.5642 C 772.40681,514.46077 771.34118,519.14712 769.21593,521.62226 L 769.21593,521.62226 z M 761.46765,460.30083 L 707.00782,460.30083 L 707.00782,514.80266 L 735.64375,514.80266 L 728.88012,497.46675 L 736.27752,494.11393 L 745.18639,514.80166 L 761.46765,514.80166 L 761.46765,460.30083 L 761.46765,460.30083 z M 859.71908,521.62226 C 857.59184,524.10038 853.54726,525.33995 847.59035,525.33995 L 808.5171,525.33995 C 802.5592,525.33995 798.49562,524.10038 796.32539,521.62226 C 794.15415,519.14613 793.06954,514.46077 793.06954,507.5642 L 793.06954,450.1544 L 804.00769,450.1544 L 804.00769,514.80166 L 851.97282,514.80166 L 851.97282,450.1544 L 862.91096,450.1544 L 862.91096,507.5642 C 862.91297,514.46077 861.84734,519.14712 859.71908,521.62226 L 859.71908,521.62226 z M 943.75552,525.33995 L 935.33948,506.86945 L 890.82314,506.86945 L 882.40311,525.33995 L 871.56192,525.33995 L 907.53227,450.1554 L 919.26613,450.1554 L 955.87325,525.33995 L 943.75552,525.33995 L 943.75552,525.33995 z M 913.16528,458.76137 L 895.42553,497.24183 L 930.90004,497.24183 L 913.16528,458.76137 L 913.16528,458.76137 z M 1025.9826,519.51 C 1020.7904,523.39563 1012.3644,525.33995 1000.7034,525.33995 L 964.44624,525.33995 L 964.44624,450.1554 L 1000.7034,450.1554 C 1012.2794,450.1554 1020.7045,452.09772 1025.9826,455.98335 C 1030.2381,459.09325 1033.58,463.41474 1036.004,468.95178 C 1038.4292,474.48684 1039.6428,480.60769 1039.6428,487.30833 C 1039.6428,501.97916 1035.0904,512.71139 1025.9826,519.51 L 1025.9826,519.51 z M 1021.0864,466.13078 C 1016.5739,462.24514 1009.2575,460.30083 999.12903,460.30083 L 975.38339,460.30083 L 975.38339,514.80266 L 999.12903,514.80266 C 1009.3425,514.80266 1016.6599,512.86033 1021.0864,508.97471 C 1025.9366,504.79618 1028.3638,497.56072 1028.3638,487.26134 C 1028.3648,477.35083 1025.9366,470.31031 1021.0864,466.13078 L 1021.0864,466.13078 z M 1107.8778,496.07124 L 1098.1782,496.07124 L 1128.2966,525.33995 L 1111.9614,525.33995 L 1085.1468,496.07124 L 1065.7306,496.07124 L 1065.7306,525.33995 L 1054.7925,525.33995 L 1054.7925,450.1554 L 1107.8778,450.1554 C 1112.7271,450.1554 1116.2579,451.298 1118.4681,453.58219 C 1120.6793,455.86639 1121.7869,459.58208 1121.7869,464.73227 L 1121.7869,481.49437 C 1121.7869,486.64656 1120.6793,490.36425 1118.4681,492.64645 C 1116.2569,494.93064 1112.7261,496.07124 1107.8778,496.07124 L 1107.8778,496.07124 z M 1110.7348,467.64325 C 1110.7348,464.72628 1110.2009,462.70698 1109.1354,461.58838 C 1108.0707,460.47177 1106.2144,459.90897 1103.5733,459.90897 L 1065.7306,459.90897 L 1065.7306,486.31568 L 1103.5733,486.31568 C 1106.2154,486.31568 1108.0707,485.77886 1109.1354,484.71224 C 1110.1999,483.64262 1110.7348,481.60034 1110.7348,478.5834 L 1110.7348,467.64325 L 1110.7348,467.64325 z M 1198.5879,525.33995 L 1190.1698,506.86945 L 1145.6535,506.86945 L 1137.2355,525.33995 L 1126.3922,525.33995 L 1162.3617,450.1554 L 1174.0985,450.1554 L 1210.7036,525.33995 L 1198.5879,525.33995 L 1198.5879,525.33995 z M 1167.9947,458.76137 L 1150.2579,497.24183 L 1185.7324,497.24183 L 1167.9947,458.76137 L 1167.9947,458.76137 z M 1244.6847,460.30083 L 1244.6847,525.34094 L 1233.7475,525.34094 L 1233.7475,460.30083 L 1203.666,460.30083 L 1203.666,450.1564 L 1275,450.1564 L 1275,460.30083 L 1244.6847,460.30083 L 1244.6847,460.30083 z "
       id="path2146" />
    <path
       style="fill:white;fill-opacity:1;fill-rule:evenodd;stroke:none;stroke-width:1.00130296px;stroke-linecap:butt;stroke-linejoin:miter;stroke-opacity:1"
       d="M 87.331054,624.999 L 83.151202,624.999 L 74.722353,595.5817 L 65.867602,624.999 L 61.6166,624.999 L 50,585.54244 L 55.879451,585.54244 L 64.167001,615.69028 L 73.021752,585.54244 L 76.778708,585.54244 L 85.419005,615.69028 L 93.706555,585.54244 L 98.808358,585.54244 L 87.331054,624.999 L 87.331054,624.999 z M 137.69671,624.999 L 133.51886,624.999 L 125.08801,595.5817 L 116.23326,624.999 L 111.98226,624.999 L 100.36565,585.54244 L 106.24511,585.54244 L 114.53265,615.69028 L 123.39041,585.54244 L 127.14436,585.54244 L 135.78767,615.69028 L 144.07521,585.54244 L 149.17401,585.54244 L 137.69671,624.999 L 137.69671,624.999 z M 188.06036,624.999 L 183.88251,624.999 L 175.45166,595.5817 L 166.5959,624.999 L 162.34791,624.999 L 150.7283,585.54244 L 156.61076,585.54244 L 164.89832,615.69028 L 173.75306,585.54244 L 177.50701,585.54244 L 186.15032,615.69028 L 194.43786,585.54244 L 199.53967,585.54244 L 188.06036,624.999 L 188.06036,624.999 z M 216.17089,624.62922 C 215.9364,624.87574 215.34815,624.999 214.40616,624.999 L 210.16517,624.999 C 209.55488,624.999 209.16505,624.84667 209.00171,624.53501 C 208.83535,624.22336 208.75419,623.57599 208.75419,622.58388 L 208.75419,617.29368 C 208.75419,616.11719 208.88245,615.40468 209.143,615.15815 C 209.40056,614.90963 209.97878,614.78637 210.87267,614.78637 L 214.40616,614.78637 C 215.30005,614.78637 215.87827,614.90963 216.13581,615.15815 C 216.39536,615.40468 216.52464,616.11719 216.52464,617.29368 L 216.52464,622.58388 C 216.52464,623.69925 216.40839,624.38068 216.17089,624.62922 L 216.17089,624.62922 z M 270.65527,607.97896 L 270.65527,613.65898 C 270.65527,618.12344 270.06502,621.12981 268.88552,622.67808 C 267.70703,624.22436 265.46528,624.999 262.16129,624.999 L 241.70396,624.999 C 238.40297,624.999 236.14819,624.21032 234.94665,622.62497 C 233.7421,621.04161 233.14183,618.04928 233.14183,613.63693 L 233.14183,588.30629 C 233.14183,583.90096 233.7421,580.90362 234.94665,579.32027 C 236.14819,577.73691 238.40297,576.94424 241.70396,576.94424 L 262.16129,576.94424 C 265.46528,576.94424 267.70703,577.72488 268.88552,579.27917 C 270.06402,580.83748 270.65527,583.85186 270.65527,588.32333 L 270.65527,592.886 L 264.56137,594.37715 L 264.56137,583.48308 L 239.23573,583.48308 L 239.23573,618.31283 L 264.56137,618.31283 L 264.56137,606.30341 L 270.65527,607.97896 L 270.65527,607.97896 z M 319.94464,624.999 L 319.94464,603.24994 L 291.09656,603.24994 L 291.09656,624.999 L 285.00065,624.999 L 285.00065,576.94424 L 291.09656,576.94424 L 291.09656,596.63593 L 319.94464,596.63593 L 319.94464,576.94424 L 326.03855,576.94424 L 326.03855,624.999 L 319.94464,624.999 L 319.94464,624.999 z M 376.19075,624.999 L 371.51385,613.16895 L 346.77546,613.16895 L 342.09756,624.999 L 336.07179,624.999 L 356.06213,576.94424 L 362.58194,576.94424 L 382.92502,624.999 L 376.19075,624.999 L 376.19075,624.999 z M 359.1667,582.4539 L 349.31985,606.99587 L 369.01455,606.99587 L 359.1667,582.4539 L 359.1667,582.4539 z M 433.06018,622.62497 C 431.88169,624.21032 429.63693,624.999 426.32793,624.999 L 401.02936,624.999 C 397.72235,624.999 395.46557,624.21032 394.25901,622.62497 C 393.05547,621.04161 392.4542,618.04928 392.4542,613.63693 L 392.4542,588.30629 C 392.4542,583.90096 393.05547,580.90362 394.25901,579.32027 C 395.46557,577.73691 397.72235,576.94424 401.02936,576.94424 L 426.32793,576.94424 C 429.63693,576.94424 431.88169,577.73691 433.06018,579.32027 C 434.24169,580.90362 434.83294,583.89996 434.83294,588.30629 L 434.83294,613.63693 C 434.83193,618.04928 434.24169,621.04161 433.06018,622.62497 L 433.06018,622.62497 z M 428.79414,583.48408 L 398.5481,583.48408 L 398.5481,618.31384 L 428.79414,618.31384 L 428.79414,583.48408 L 428.79414,583.48408 z M 479.95148,596.8574 C 483.25849,596.8574 485.50223,597.66411 486.68374,599.28054 C 487.86524,600.89495 488.45649,603.87827 488.45649,608.22548 L 488.45649,613.63193 C 488.45649,618.04326 487.86624,621.04061 486.68374,622.62597 C 485.50223,624.21133 483.25849,625 479.95148,625 L 458.62131,625 C 455.31431,625 453.05753,624.21133 451.85097,622.63399 C 450.64743,621.05665 450.04616,618.06131 450.04616,613.65998 L 450.04616,612.35622 L 455.69311,610.58648 L 455.69311,618.31384 L 482.91977,618.31384 L 482.91977,603.84019 L 459.94912,603.84019 C 456.69022,603.84019 454.45649,603.04751 453.24893,601.46416 C 452.04438,599.88481 451.44111,596.89047 451.44111,592.48615 L 451.44111,588.29728 C 451.44111,583.83282 452.04438,580.82245 453.24893,579.27417 C 454.45349,577.71988 456.68721,576.94524 459.94612,576.94524 L 479.43338,576.94524 C 482.55099,576.94524 484.75966,577.69282 486.05741,579.18799 C 487.35717,580.68115 488.00854,583.44901 488.00854,587.48656 L 488.00854,588.51173 L 482.75241,590.46687 L 482.75241,583.48308 L 456.92172,583.48308 L 456.92172,596.8574 L 479.95148,596.8574 L 479.95148,596.8574 z M 519.30983,583.48408 L 519.30983,625 L 513.21391,625 L 513.21391,583.48408 L 496.49852,583.48408 L 496.49852,576.94524 L 536.09738,576.94524 L 536.09738,583.48408 L 519.30983,583.48408 L 519.30983,583.48408 z M 574.07981,606.26232 L 568.69741,606.26232 L 585.41582,624.999 L 576.34861,624.999 L 561.47512,606.26232 L 550.71433,606.26232 L 550.71433,624.999 L 544.61842,624.999 L 544.61842,576.94424 L 574.07881,576.94424 C 576.76951,576.94424 578.72865,577.67478 579.95825,579.13086 C 581.18486,580.59096 581.79815,582.96298 581.79815,586.25295 L 581.79815,596.95561 C 581.79815,600.24357 581.18486,602.6176 579.95825,604.07569 C 578.72865,605.53278 576.77051,606.26232 574.07981,606.26232 L 574.07981,606.26232 z M 575.64913,588.1189 C 575.64913,586.25796 575.35351,584.97324 574.76326,584.25873 C 574.17301,583.54621 573.14482,583.19046 571.68073,583.19046 L 550.71433,583.19046 L 550.71433,600.0171 L 571.68073,600.0171 C 573.14482,600.0171 574.172,599.67637 574.76326,598.99493 C 575.35451,598.31348 575.64913,597.01073 575.64913,595.09066 L 575.64913,588.1189 L 575.64913,588.1189 z M 632.31714,618.38599 L 632.31714,625 L 596.82597,625 L 596.82597,576.94524 L 632.03454,576.94524 L 632.03454,583.33777 L 602.92189,583.33777 L 602.92189,596.78424 L 620.69753,596.78424 L 620.69753,603.10663 L 602.92189,603.10663 L 602.92189,618.38699 L 632.31714,618.38699 L 632.31714,618.38599 z M 651.16104,583.48408 L 651.16104,599.21039 L 667.52369,599.21039 L 667.52369,605.60092 L 651.16104,605.60092 L 651.16104,624.999 L 645.06713,624.999 L 645.06713,576.94424 L 679.84879,576.94424 L 679.84879,583.48308 L 651.16104,583.48308 L 651.16104,583.48408 z M 694.51284,583.48408 L 694.51284,599.21039 L 710.87448,599.21039 L 710.87448,605.60092 L 694.51284,605.60092 L 694.51284,624.999 L 688.41894,624.999 L 688.41894,576.94424 L 723.20159,576.94424 L 723.20159,583.48308 L 694.51284,583.48308 L 694.51284,583.48408 z M 726.23802,603.61572 L 726.23802,596.78324 L 741.6667,596.78324 L 741.6667,603.61572 L 726.23802,603.61572 L 726.23802,603.61572 z M 792.67972,624.999 L 792.67972,592.59037 L 792.95932,585.51238 C 792.15661,587.74611 791.42707,589.48579 790.76667,590.72642 L 776.83216,617.44701 L 775.27487,617.44701 L 760.77215,591.472 C 760.20495,590.47589 759.38121,588.48868 758.29591,585.51238 C 758.4833,587.37332 758.5755,589.73432 758.5755,592.59037 L 758.5755,624.999 L 753.37649,624.999 L 753.37649,576.94424 L 758.33399,576.94424 L 776.10663,608.2355 L 792.67872,576.94424 L 798.32568,576.94424 L 798.32568,624.999 L 792.67972,624.999 L 792.67972,624.999 z M 848.53501,624.999 L 843.85809,613.16895 L 819.11871,613.16895 L 814.44181,624.999 L 808.41604,624.999 L 828.40337,576.94424 L 834.92318,576.94424 L 855.26626,624.999 L 848.53501,624.999 L 848.53501,624.999 z M 831.51095,582.4539 L 821.6641,606.99587 L 841.3548,606.99587 L 831.51095,582.4539 L 831.51095,582.4539 z M 902.26378,624.999 L 874.1292,591.5652 C 873.089,590.32456 872.49775,589.61006 872.35645,589.42567 C 871.59884,588.43156 870.96249,587.34526 870.4434,586.16275 C 870.74103,589.02081 870.88934,592.53024 870.88934,596.68705 L 870.88934,624.999 L 865.24239,624.999 L 865.24239,576.94424 L 869.06948,576.94424 L 896.41239,609.07527 C 897.73219,610.62756 899.12513,612.64684 900.58923,615.12709 C 900.20843,612.14979 900.02003,608.20643 900.02003,603.30105 L 900.02003,576.94424 L 905.66699,576.94424 L 905.66699,624.999 L 902.26378,624.999 L 902.26378,624.999 z M 959.85574,624.999 L 931.72116,591.5652 C 930.68096,590.32456 930.08971,589.61006 929.94841,589.42567 C 929.1908,588.43156 928.55445,587.34526 928.03536,586.16275 C 928.33299,589.02081 928.4813,592.53024 928.4813,596.68705 L 928.4813,624.999 L 922.83435,624.999 L 922.83435,576.94424 L 926.66044,576.94424 L 954.00335,609.07527 C 955.32414,610.62756 956.71709,612.64684 958.18119,615.12709 C 957.80039,612.14979 957.61098,608.20643 957.61098,603.30105 L 957.61098,576.94424 L 963.25794,576.94424 L 963.25794,624.999 L 959.85574,624.999 L 959.85574,624.999 z M 1015.4254,624.999 L 1015.4254,603.24994 L 986.57532,603.24994 L 986.57532,624.999 L 980.48242,624.999 L 980.48242,576.94424 L 986.57532,576.94424 L 986.57532,596.63593 L 1015.4254,596.63593 L 1015.4254,576.94424 L 1021.5193,576.94424 L 1021.5193,624.999 L 1015.4254,624.999 L 1015.4254,624.999 z M 1074.2009,618.38599 L 1074.2009,625 L 1038.7096,625 L 1038.7096,576.94524 L 1073.9182,576.94524 L 1073.9182,583.33777 L 1044.8026,583.33777 L 1044.8026,596.78424 L 1062.5813,596.78424 L 1062.5813,603.10663 L 1044.8026,603.10663 L 1044.8026,618.38699 L 1074.2009,618.38699 L 1074.2009,618.38599 z M 1086.9509,624.999 L 1086.9509,576.94424 L 1093.0448,576.94424 L 1093.0448,624.999 L 1086.9509,624.999 L 1086.9509,624.999 z M 1149.5585,624.999 L 1149.5585,592.59037 L 1149.838,585.51238 C 1149.0353,587.74611 1148.3057,589.48579 1147.6464,590.72642 L 1133.7098,617.44701 L 1132.1525,617.44701 L 1117.6499,591.472 C 1117.0846,590.47589 1116.2589,588.48868 1115.1735,585.51238 C 1115.36,587.37332 1115.4532,589.73432 1115.4532,592.59037 L 1115.4532,624.999 L 1110.2532,624.999 L 1110.2532,576.94424 L 1115.2107,576.94424 L 1132.9843,608.2355 L 1149.5565,576.94424 L 1155.2034,576.94424 L 1155.2034,624.999 L 1149.5585,624.999 L 1149.5585,624.999 z M 1179.7002,624.62922 C 1179.4657,624.87574 1178.8775,624.999 1177.9355,624.999 L 1173.6955,624.999 C 1173.0842,624.999 1172.6954,624.84667 1172.532,624.53501 C 1172.3647,624.22336 1172.2845,623.57599 1172.2845,622.58388 L 1172.2845,617.29368 C 1172.2845,616.11719 1172.4128,615.40468 1172.6734,615.15815 C 1172.9309,614.90963 1173.5091,614.78637 1174.4031,614.78637 L 1177.9366,614.78637 C 1178.8304,614.78637 1179.4057,614.90963 1179.6662,615.15815 C 1179.9267,615.40468 1180.055,616.11719 1180.055,617.29368 L 1180.055,622.58388 C 1180.054,623.69925 1179.9378,624.38068 1179.7002,624.62922 L 1179.7002,624.62922 z M 1214.2303,624.999 L 1196.9488,624.999 L 1196.9488,585.54244 L 1214.2303,585.54244 C 1219.8012,585.54244 1223.8137,586.56461 1226.2709,588.61194 C 1230.615,592.21357 1232.7867,597.73326 1232.7867,605.17601 C 1232.7867,618.39201 1226.6015,624.999 1214.2303,624.999 L 1214.2303,624.999 z M 1223.7345,594.39719 C 1221.6551,592.41399 1218.2719,591.41989 1213.592,591.41989 L 1202.5957,591.41989 L 1202.5957,619.04639 L 1213.592,619.04639 C 1218.3201,619.04639 1221.7603,618.02423 1223.9138,615.97689 C 1226.0644,613.92956 1227.1407,610.30288 1227.1407,605.09285 C 1227.1397,600.07321 1226.0032,596.50566 1223.7345,594.39719 L 1223.7345,594.39719 z M 1275,619.1937 L 1275,624.999 L 1244.4714,624.999 L 1244.4714,585.54244 L 1274.7175,585.54244 L 1274.7175,591.41989 L 1250.1184,591.41989 L 1250.1184,601.55836 L 1264.9438,601.55836 L 1264.9438,607.4378 L 1250.1184,607.4378 L 1250.1184,619.1927 L 1275,619.1927 L 1275,619.1937 z "
       id="path2148" />
    <path
       style="fill:white;fill-opacity:1;display:inline"
       d="M 99.999997,50.000015 L 99.999997,99.99999 L 50,99.99999 L 50,349.99975 L 99.999997,349.99975 L 99.999997,400 L 300,400 L 300,349.99975 L 350,349.99975 L 350,299.99988 L 250,299.99988 L 250,349.99975 L 150,349.99975 L 150,99.99999 L 250,99.99999 L 250,149.99986 L 350,149.99986 L 350,99.99999 L 300,99.99999 L 300,50.000015 L 99.999997,50.000015 z "
       id="rect1307" />
    <path
       style="fill:white;fill-opacity:1;display:inline"
       d="M 449.99999,50.00001 L 449.99999,99.99999 L 400,99.99999 L 400,349.99975 L 449.99999,349.99975 L 449.99999,400 L 650,400 L 650,349.99975 L 700,349.99975 L 700,299.99988 L 600,299.99988 L 600,349.99975 L 500,349.99975 L 500,99.99999 L 600,99.99999 L 600,149.99986 L 700,149.99986 L 700,99.99999 L 650,99.99999 L 650,50.00001 L 449.99999,50.00001 z "
       id="path5067" />
    <path
       style="fill:white;fill-opacity:1;display:inline"
       d="M 799.99999,50.000015 L 799.99999,99.99999 L 750,99.99999 L 750,349.99975 L 799.99999,349.99975 L 799.99999,400 L 999.99999,400 L 999.99999,349.99975 L 1050,349.99975 L 1050,299.99988 L 950,299.99988 L 950,349.99975 L 850,349.99975 L 850,99.99999 L 950,99.99999 L 950,149.99986 L 1050,149.99986 L 1050,99.99999 L 999.99999,99.99999 L 999.99999,50.000015 L 799.99999,50.000015 z "
       id="path5069" />
    <path
       style="fill:white;fill-opacity:1;stroke:none;stroke-width:3.54330707;stroke-linejoin:miter;stroke-miterlimit:4;stroke-dasharray:7.08661417, 7.08661417;stroke-dashoffset:0;stroke-opacity:0.82369941"
       d="M 1100 50 L 1100 225 L 1275 225 L 1275 50 L 1100 50 z M 1150 75 L 1225 75 L 1225 100 L 1250 100 L 1250 125 L 1225 125 L 1225 150 L 1175 150 L 1175 175 L 1250 175 L 1250 200 L 1125 200 L 1125 175 L 1150 175 L 1150 150 L 1175 150 L 1175 125 L 1225 125 L 1225 100 L 1150 100 L 1150 125 L 1125 125 L 1125 100 L 1150 100 L 1150 75 z "
       id="rect5071" />
  </g>
</svg>
